# AST/ASF file generated using VICON BodyLanguage
# -----------------------------------------------
:version 1.10
:name VICON
:units
  mass 1.0
  length 0.45
  angle deg
:documentation
   .ast/.asf automatically generated from VICON data using
   VICON BodyBuilder and BodyLanguage model FoxedUp or BRILLIANT.MOD
:root
   order TX TY TZ RX RY RZ
   axis XYZ
   position 0 0 0  
   orientation 0 0 0 
:bonedata
  begin
     id 1 
     name lhipjoint
     direction 0.611804 -0.747784 0.257906 
     length 2.29243 
     axis 0 0 0  XYZ
  end
  begin
     id 2 
     name lfemur
     direction 0.34202 -0.939693 0  
     length 7.31159  
     axis 0 0 20  XYZ
    dof rx ry rz
    limits (-160.0 20.0)
           (-70.0 70.0)
           (-60.0 70.0)
  end
  begin
     id 3 
     name ltibia
     direction 0.34202 -0.939693 0   
     length 7.33391   
     axis 0 0 20   XYZ
    dof rx
    limits (-10.0 170.0)
  end
  begin
     id 4 
     name lfoot
     direction 0.122263 -0.335914 0.933924   
     length 1.76083   
     axis -90 7.62852e-016 20   XYZ
    dof rx rz
    limits (-45.0 90.0)
           (-70.0 20.0)
  end
  begin
     id 5 
     name ltoes
     direction 1.53533e-011 -4.2177e-011 1   
     length 0.879206   
     axis -90 7.62852e-016 20   XYZ
    dof rx
    limits (-90.0 20.0)
  end
  begin
     id 6 
     name rhipjoint
     direction -0.646469 -0.721248 0.248754   
     length 2.37677  
     axis 0 0 0  XYZ 
  end
  begin
     id 7 
     name rfemur
     direction -0.34202 -0.939693 0   
     length 7.18623   
     axis 0 0 -20   XYZ
    dof rx ry rz
    limits (-160.0 20.0)
           (-70.0 70.0)
           (-70.0 60.0)
  end
  begin
     id 8 
     name rtibia
     direction -0.34202 -0.939693 0   
     length 7.36567   
     axis 0 0 -20   XYZ
    dof rx
    limits (-10.0 170.0)
 end
 begin
     id 9 
     name rfoot
     direction -0.126681 -0.348054 0.928876   
     length 1.71902  
     axis -90 -7.62852e-016 -20   XYZ
    dof rx rz
    limits (-45.0 90.0)
           (-20.0 70.0)
  end
  begin
     id 10 
     name rtoes
     direction -1.53551e-011 -4.21898e-011 1   
     length 0.857792   
     axis -90 -7.62852e-016 -20   XYZ
    dof rx
    limits (-90.0 20.0)
  end
  begin
     id 11 
     name lowerback
     direction 0.0106509 0.999778 0.0181844   
     length 2.07668   
     axis 0 0 0   XYZ
    dof rx ry rz
    limits (-20.0 45.0)
           (-30.0 30.0)
           (-30.0 30.0)
  end
  begin
     id 12 
     name upperback
     direction -0.00456018 0.999989 -0.000590935   
     length 2.08011   
     axis 0 0 0   XYZ
    dof rx ry rz
    limits (-20.0 45.0)
           (-30.0 30.0)
           (-30.0 30.0)
  end
  begin
     id 13 
     name thorax
     direction -0.00910382 0.999916 -0.00923765   
     length 2.07397   
     axis 0 0 0   XYZ
    dof rx ry rz
    limits (-20.0 45.0)
           (-30.0 30.0)
           (-30.0 30.0)
  end
  begin
     id 14 
     name lowerneck
     direction 0.00171967 0.99778 0.0665733   
     length 1.67556   
     axis 0 0 0   XYZ
    dof rx ry rz
    limits (-20.0 45.0)
           (-30.0 30.0)
           (-30.0 30.0)
  end
  begin
     id 15 
     name upperneck
     direction -0.0143166 0.991302 -0.130828   
     length 1.68462   
     axis 0 0 0   XYZ
    dof rx ry rz
    limits (-20.0 45.0)
           (-30.0 30.0)
           (-30.0 30.0)
  end
  begin
     id 16
     name head
     direction -0.00606378 0.998665 -0.0512995  
     length 1.69269  
     axis 0 0 0   XYZ
    dof rx ry rz
    limits (-20.0 45.0)
           (-30.0 30.0)
           (-30.0 30.0)
  end
  begin
     id 17 
     name lclavicle
     direction 0.9638 0.179341 0.197297  
     length 4.12888  
     axis 0 0 0   XYZ
    dof ry rz
    limits (-20.0 10.0)
           (0.0 20.0)
  end
  begin
     id 18 
     name lhumerus
     direction 1 -4.48972e-011 -2.47351e-027   
     length 5.01834   
     axis -180 -30 -90   XYZ
    dof rx ry rz
    limits (-60.0 90.0)
           (-90.0 90.0)
           (-90.0 90.0)
  end
  begin
     id 19
     name lradius
     direction 1 -4.48965e-011 1.51591e-026   
     length 3.4869   
     axis -180 -30 -90   XYZ
    dof rx
    limits (-10.0 170.0)
  end
  begin
     id 20
     name lwrist
     direction 1 -4.48957e-011 2.70032e-026   
     length 1.74345   
     axis -1.81515e-014 90 90   XYZ
    dof ry
    limits (-180.0 0.0)
 end
  begin
     id 21 
     name lhand
     direction 1 -4.48951e-011 5.40064e-026   
     length 0.76799   
     axis -3.44607e-014 90 90   XYZ
    dof rx rz
    limits (-90.0 90.0)
           (-45.0 45.0)
  end
  begin
     id 22 
     name lfingers
     direction 1 -4.48971e-011 1.08013e-025   
     length 0.619174   
     axis -6.89214e-014 90 90   XYZ
    dof rx
    limits (0.0 90.0)
  end
  begin
     id 23
     name lthumb
     direction 0.707107 -6.34931e-011 0.707107   
     length 0.889013   
     axis -90 45 2.85299e-015   XYZ
    dof rx rz
    limits (-45.0 45.0)
           (-45.0 45.0)
  end
  begin
     id 24 
     name rclavicle
     direction -0.961409 0.252588 0.109054   
     length 4.04305  
     axis 0 0 0   XYZ 
    dof ry rz
    limits (-10.0 20.0)
           (-20.0 0.0)
  end
  begin
     id 25 
     name rhumerus
     direction -1 -4.4897e-011 1.33872e-017  
     length 4.70164   
     axis -180 30 90   XYZ
    dof rx ry rz
    limits (-90.0 60.0)
           (-90.0 90.0)
           (-90.0 90.0)
  end
  begin
     id 26 
     name rradius
     direction -1 -4.48954e-011 1.83844e-026   
     length 3.49911   
     axis -180 30 90   XYZ
    dof rx
    limits (-10.0 170.0)
  end
  begin
     id 27 
     name rwrist
     direction -1 -4.49008e-011 2.70032e-026   
     length 1.74955   
     axis -1.81515e-014 -90 -90   XYZ
    dof ry
    limits (-180.0 0.0)
  end
  begin
     id 28
     name rhand
     direction -1 -4.48916e-011 5.40064e-026   
     length 0.739335   
     axis -3.44607e-014 -90 -90   XYZ
    dof rx rz
    limits (-90.0 90.0)
           (-45.0 45.0)
  end
  begin
     id 29
     name rfingers
     direction -1 -4.48987e-011 1.08013e-025   
     length 0.596071   
     axis -6.89214e-014 -90 -90   XYZ
    dof rx
    limits (0.0 90.0)
  end
  begin
     id 30
     name rthumb
     direction -0.707107 -6.34935e-011 0.707107   
     length 0.855843   
     axis -90 -45 -2.85299e-015   XYZ
    dof rx rz
    limits (-45.0 45.0)
           (-45.0 45.0)
  end
:hierarchy
  begin
    root lhipjoint rhipjoint lowerback
    lhipjoint lfemur
    lfemur ltibia
    ltibia lfoot
    lfoot ltoes
    rhipjoint rfemur
    rfemur rtibia
    rtibia rfoot
    rfoot rtoes
    lowerback upperback
    upperback thorax
    thorax lowerneck lclavicle rclavicle
    lowerneck upperneck
    upperneck head
    lclavicle lhumerus
    lhumerus lradius
    lradius lwrist
    lwrist lhand lthumb
    lhand lfingers
    rclavicle rhumerus
    rhumerus rradius
    rradius rwrist
    rwrist rhand rthumb
    rhand rfingers
  end

#!OML:ASF I:\salsa\salsa 7_09\Patient 1\Session 1\dancermale.ASF
:FULLY-SPECIFIED
:DEGREES
581
root -1.82014 16.9063 1.7896 368.959 -79.0649 713.608
lowerback -5.96199 1.21459 3.8949
upperback -2.33247 1.33183 1.03174
thorax 1.00274 0.631462 -1.03333
lowerneck -8.70603 6.20108 0.435696
upperneck 32.7438 12.5939 -14.9086
head 13.696 3.28135 -4.34389
rclavicle -2.06736e-014 -7.95139e-016
rhumerus -45.7941 -17.0226 -67.5821
rradius 96.3778
rwrist -23.3346
rhand -43.312 3.62357
rfingers 7.12502
rthumb -16.1588 -25.7229
lclavicle -2.06736e-014 -7.95139e-016
lhumerus 79.867 30.466 20.71
lradius 79.8188
lwrist 87.6311
lhand 3.2321 65.2265
lfingers 7.12502
lthumb 28.6823 626.956
rfemur -11.2889 -8.11401 27.91
rtibia 34.9248
rfoot -25.599 -15.8157
rtoes 5.45879
lfemur -46.9902 23.6809 -32.5352
ltibia 59.009
lfoot 5.62212 15.6114
ltoes 33.1556
582
root -1.9372 16.9022 1.72897 368.256 -76.7621 714.356
lowerback -5.98378 1.2458 3.76107
upperback -2.38512 1.38514 0.912554
thorax 0.963055 0.657909 -1.0775
lowerneck -8.51243 5.72292 0.396861
upperneck 33.0374 11.8896 -14.7287
head 13.6794 2.99522 -4.38613
rclavicle -2.78299e-015 -7.15625e-015
rhumerus -47.7755 -18.919 -64.5382
rradius 96.8735
rwrist -24.0886
rhand -42.8299 2.89972
rfingers 7.12502
rthumb -15.6945 -26.4838
lclavicle -2.78299e-015 -7.15625e-015
lhumerus 80.0419 32.0075 20.8482
lradius 82.4084
lwrist 89.1466
lhand 2.59403 65.269
lfingers 7.12502
lthumb 28.0726 626.812
rfemur -12.0185 -10.2995 27.9993
rtibia 36.9256
rfoot -25.261 -15.5614
rtoes 3.56439
lfemur -45.7746 23.7733 -33.0107
ltibia 57.4637
lfoot 5.27956 15.0614
ltoes 33.5572
583
root -2.05602 16.8952 1.67591 367.467 -74.5537 715.169
lowerback -6.05817 1.32816 3.56021
upperback -2.57129 1.50967 0.718055
thorax 0.818786 0.715833 -1.15719
lowerneck -7.83142 5.1963 0.232087
upperneck 33.4061 10.9158 -13.9486
head 13.4947 2.66542 -4.20283
rclavicle 6.72638e-014 -1.0138e-014
rhumerus -50.2896 -20.7573 -61.4471
rradius 97.6422
rwrist -26.5901
rhand -42.5265 2.42702
rfingers 7.12502
rthumb -15.4023 -26.9792
lclavicle 6.72638e-014 -1.0138e-014
lhumerus 80.0727 33.1889 20.8548
lradius 85.1907
lwrist 90.347
lhand 1.74017 64.9952
lfingers 7.12502
lthumb 27.2561 626.954
rfemur -13.0121 -12.6379 27.8767
rtibia 39.535
rfoot -24.5469 -15.0642
rtoes 0.269946
lfemur -43.8713 23.2625 -32.9204
ltibia 55.4619
lfoot 4.32732 13.3107
ltoes 32.412
584
root -2.17315 16.8862 1.62912 366.652 -72.515 716.008
lowerback -6.18644 1.41172 3.24877
upperback -2.69711 1.63787 0.555257
thorax 0.763009 0.778878 -1.14013
lowerneck -7.56671 4.89554 -0.141342
upperneck 34.0077 10.3181 -12.975
head 13.5383 2.4628 -3.85276
rclavicle 4.22169e-014 8.15017e-015
rhumerus -52.7212 -22.5934 -58.0867
rradius 98.1206
rwrist -29.2802
rhand -41.0507 2.84983
rfingers 7.12502
rthumb -13.9805 -26.6601
lclavicle 4.22169e-014 8.15017e-015
lhumerus 79.8125 34.5914 20.7158
lradius 88.1544
lwrist 91.4516
lhand 0.584743 64.346
lfingers 7.12502
lthumb 26.1503 627.435
rfemur -14.1241 -15.056 27.4859
rtibia 42.4934
rfoot -23.3425 -13.9673
rtoes -4.07731
lfemur -41.4245 21.896 -32.3519
ltibia 53.1529
lfoot 2.56836 11.0773
ltoes 27.983
585
root -2.27996 16.878 1.58615 366.023 -70.5893 716.798
lowerback -6.36227 1.38709 2.82516
upperback -2.78064 1.62455 0.517479
thorax 0.764187 0.773912 -0.939933
lowerneck -7.59441 4.71994 -0.594989
upperneck 34.4517 10.0036 -12.2603
head 13.6342 2.33969 -3.54128
rclavicle -1.29707e-014 -6.95746e-015
rhumerus -54.6859 -23.9972 -54.8327
rradius 98.4141
rwrist -32.1752
rhand -39.6113 2.99206
rfingers 7.12502
rthumb -12.5931 -26.6084
lclavicle -1.29707e-014 -6.95746e-015
lhumerus 79.1879 36.3026 20.5325
lradius 91.1214
lwrist 92.5724
lhand -0.530848 63.6082
lfingers 7.12502
lthumb 25.0818 628.019
rfemur -15.6075 -17.4053 26.9277
rtibia 45.895
rfoot -21.5285 -12.1604
rtoes -9.66664
lfemur -38.8885 19.3649 -31.4708
ltibia 50.7045
lfoot -0.143153 9.08946
ltoes 19.9537
586
root -2.37122 16.8682 1.54257 365.346 -68.7378 717.774
lowerback -6.55275 1.46565 2.2581
upperback -3.2676 1.75723 0.352473
thorax 0.362446 0.832096 -0.785155
lowerneck -6.16586 4.30203 -0.371394
upperneck 34.4524 9.12464 -11.8931
head 13.2139 2.0888 -3.56887
rclavicle -1.07841e-014 5.96354e-016
rhumerus -57.6763 -25.1195 -51.1695
rradius 98.5765
rwrist -34.4972
rhand -38.3138 3.11394
rfingers 7.12502
rthumb -11.342 -26.5594
lclavicle -1.07841e-014 5.96354e-016
lhumerus 78.7833 37.2248 20.6829
lradius 94.0002
lwrist 93.8197
lhand -1.1155 62.8068
lfingers 7.12502
lthumb 24.5215 628.743
rfemur -17.6698 -19.6652 26.1679
rtibia 49.9266
rfoot -18.94 -9.6213
rtoes -14.6015
lfemur -36.6834 16.1507 -30.5704
ltibia 48.3624
lfoot -3.01257 7.34046
ltoes 10.8945
587
root -2.4488 16.8581 1.49655 364.265 -66.8796 719.076
lowerback -6.33483 1.4661 1.87719
upperback -3.64351 1.78817 -0.0578119
thorax -0.142578 0.839998 -1.00225
lowerneck -5.67334 4.01605 -0.141524
upperneck 34.7679 8.52611 -11.4079
head 13.1654 1.92354 -3.51032
rclavicle -1.51201e-014 -1.09332e-015
rhumerus -60.3948 -26.1849 -47.9126
rradius 98.3729
rwrist -36.387
rhand -36.8013 3.35005
rfingers 7.12502
rthumb -9.88291 -26.398
lclavicle -1.51201e-014 -1.09332e-015
lhumerus 78.6004 38.3461 20.9684
lradius 96.7274
lwrist 95.2289
lhand -1.10012 62.0559
lfingers 7.12502
lthumb 24.5362 629.496
rfemur -19.9721 -21.8822 25.0268
rtibia 54.3829
rfoot -15.9154 -6.20986
rtoes -17.5158
lfemur -34.7629 13.0289 -29.9171
ltibia 46.2241
lfoot -5.51729 5.53594
ltoes 2.0662
588
root -2.51928 16.8468 1.44602 362.787 -65.1632 720.731
lowerback -6.09343 1.42223 1.2485
upperback -3.8708 1.76704 -0.45188
thorax -0.516977 0.83035 -1.06553
lowerneck -5.67342 3.8845 -0.0915933
upperneck 35.2536 8.20321 -10.8053
head 13.3158 1.8463 -3.3374
rclavicle -5.88737e-014 -6.95746e-015
rhumerus -62.7594 -26.8111 -44.7776
rradius 98.0018
rwrist -39.183
rhand -34.9617 3.40584
rfingers 7.12502
rthumb -8.10779 -26.4186
lclavicle -5.88737e-014 -6.95746e-015
lhumerus 78.4727 39.5019 21.5831
lradius 99.2806
lwrist 96.4675
lhand -0.376356 61.5904
lfingers 7.12502
lthumb 25.2298 449.942
rfemur -22.1938 -23.7744 23.3871
rtibia 58.65
rfoot -12.886 -1.92098
rtoes -16.2809
lfemur -33.0816 10.4742 -29.7709
ltibia 44.214
lfoot -7.70629 4.07597
ltoes -4.05622
589
root -2.58188 16.8305 1.38715 361.383 -63.684 722.465
lowerback -6.10126 1.42723 0.232442
upperback -4.0844 1.81818 -0.671659
thorax -0.755229 0.867976 -0.722617
lowerneck -5.70846 3.82961 -0.393798
upperneck 35.7223 7.99599 -10.0218
head 13.4572 1.79726 -3.00969
rclavicle -2.96282e-014 -6.06293e-015
rhumerus -64.9237 -26.9144 -41.5105
rradius 97.4881
rwrist -42.4849
rhand -33.0799 3.66593
rfingers 7.12502
rthumb -6.29135 -26.2206
lclavicle -2.96282e-014 -6.06293e-015
lhumerus 78.3475 40.4725 22.6673
lradius 101.819
lwrist 97.3901
lhand 0.553637 61.2779
lfingers 7.12502
lthumb 26.1206 449.501
rfemur -24.3097 -25.2872 21.4885
rtibia 62.2555
rfoot -9.64599 2.42963
rtoes -10.425
lfemur -31.978 8.84545 -30.188
ltibia 42.5499
lfoot -9.74067 3.11563
ltoes -8.06485
590
root -2.63794 16.8134 1.31762 360.618 -62.2168 723.59
lowerback -6.04425 1.42405 -0.5018
upperback -4.41715 1.83717 -0.891578
thorax -1.14628 0.885778 -0.543507
lowerneck -5.38373 3.70991 -0.636115
upperneck 36.0309 7.68718 -9.41277
head 13.4561 1.70562 -2.77417
rclavicle -9.54912e-014 -1.2275e-014
rhumerus -67.1402 -26.6679 -38.4074
rradius 96.7598
rwrist -44.5051
rhand -31.3481 3.51527
rfingers 7.12502
rthumb -4.61924 -26.4144
lclavicle -9.54912e-014 -1.2275e-014
lhumerus 78.2627 41.1038 23.8945
lradius 104.511
lwrist 98.3826
lhand 0.914278 61.0269
lfingers 7.12502
lthumb 26.4658 449.199
rfemur -26.122 -26.7795 19.7883
rtibia 65.175
rfoot -8.4671 6.2305
rtoes -8.2368
lfemur -31.4049 8.19489 -30.7304
ltibia 41.3479
lfoot -10.6715 2.78453
ltoes -2.85765
591
root -2.69272 16.7983 1.23735 360.49 -60.4939 723.922
lowerback -5.80545 1.38522 -0.826644
upperback -4.80242 1.78303 -1.09979
thorax -1.68128 0.860852 -0.5908
lowerneck -4.77846 3.45585 -0.817476
upperneck 36.2773 7.16103 -8.88497
head 13.3617 1.52445 -2.6107
rclavicle -7.98866e-014 -3.6477e-014
rhumerus -69.4835 -26.2221 -35.4109
rradius 95.8668
rwrist -45.5727
rhand -29.7533 2.76439
rfingers 7.12502
rthumb -3.07925 -27.1931
lclavicle -7.98866e-014 -3.6477e-014
lhumerus 78.3936 41.2126 25.4355
lradius 107.372
lwrist 99.4268
lhand 0.810539 60.8351
lfingers 7.12502
lthumb 26.3665 449.022
rfemur -26.5176 -27.8142 18.347
rtibia 66.0069
rfoot -8.15448 8.91548
rtoes -9.25788
lfemur -30.9397 7.9151 -30.9826
ltibia 40.422
lfoot -11.5432 2.09335
ltoes 0.132065
592
root -2.73723 16.7857 1.14793 360.966 -58.6762 723.577
lowerback -5.75295 1.3893 -0.7754
upperback -5.01859 1.77855 -1.21773
thorax -1.92912 0.854389 -0.745873
lowerneck -4.33811 3.20466 -1.12085
upperneck 36.4164 6.61769 -8.18835
head 13.2476 1.34499 -2.34975
rclavicle 8.86828e-014 1.45113e-014
rhumerus -71.5946 -25.7563 -32.6429
rradius 94.6079
rwrist -47.0763
rhand -27.8658 3.43282
rfingers 7.12502
rthumb -1.25628 -26.5432
lclavicle 8.86828e-014 1.45113e-014
lhumerus 78.8602 41.1388 27.4785
lradius 110.398
lwrist 100.137
lhand 0.471913 60.3932
lfingers 7.12502
lthumb 26.0423 448.628
rfemur -26.2392 -26.8662 17.6544
rtibia 65.9817
rfoot -9.15162 10.2976
rtoes -7.77586
lfemur -30.5698 7.52684 -30.7612
ltibia 39.6204
lfoot -12.2661 1.05558
ltoes 1.58521
593
root -2.7653 16.7767 1.04526 361.927 -56.9452 722.71
lowerback -5.92161 1.39453 -0.364192
upperback -5.06881 1.77171 -1.24059
thorax -1.87398 0.839546 -0.996198
lowerneck -4.02304 3.00481 -1.30246
upperneck 36.4133 6.19199 -7.67507
head 13.123 1.21589 -2.16251
rclavicle -1.01132e-014 1.09332e-014
rhumerus -73.1144 -25.4713 -30.3237
rradius 93.0041
rwrist -48.3546
rhand -25.8898 3.78158
rfingers 7.12502
rthumb 0.652158 -26.1972
lclavicle -1.01132e-014 1.09332e-014
lhumerus 79.4107 41.2751 29.5671
lradius 113.533
lwrist 100.641
lhand -0.111999 59.5562
lfingers 7.12502
lthumb 25.4831 447.872
rfemur -25.885 -24.9464 17.5351
rtibia 65.8827
rfoot -10.6041 8.56685
rtoes -9.1666
lfemur -30.3709 6.80689 -30.0198
ltibia 38.8592
lfoot -12.7953 -0.0953349
ltoes 1.49679
594
root -2.78421 16.7737 0.928003 362.846 -55.1022 721.823
lowerback -6.05016 1.29797 -0.00180292
upperback -5.13475 1.63054 -1.1792
thorax -1.86452 0.760109 -1.13995
lowerneck -3.63498 2.82159 -1.37648
upperneck 36.478 5.83981 -7.39284
head 13.0353 1.09931 -2.08227
rclavicle 5.09883e-014 1.78906e-015
rhumerus -74.1376 -25.143 -28.4861
rradius 91.1599
rwrist -48.801
rhand -24.3628 3.90153
rfingers 7.12502
rthumb 2.12693 -26.0676
lclavicle 5.09883e-014 1.78906e-015
lhumerus 79.7172 41.3823 31.3326
lradius 116.591
lwrist 101.087
lhand -0.810364 58.7265
lfingers 7.12502
lthumb 24.814 447.136
rfemur -25.1922 -22.4189 17.5117
rtibia 65.785
rfoot -12.1659 7.06162
rtoes -6.83851
lfemur -30.305 5.39035 -29.076
ltibia 38.2416
lfoot -13.215 -1.08547
ltoes 0.568516
595
root -2.79612 16.7736 0.799622 363.282 -53.1987 721.362
lowerback -6.11112 1.12057 0.0470672
upperback -5.1643 1.39538 -1.0904
thorax -1.86689 0.643277 -1.0855
lowerneck -3.16547 2.71363 -1.5087
upperneck 36.4852 5.59984 -7.11595
head 12.9116 1.02669 -1.97921
rclavicle -8.69683e-015 -1.13307e-014
rhumerus -74.7649 -24.4227 -27.1844
rradius 89.4532
rwrist -49.1032
rhand -23.1768 4.30025
rfingers 7.12502
rthumb 3.27238 -25.6544
lclavicle -8.69683e-015 -1.13307e-014
lhumerus 79.8213 41.418 32.7155
lradius 119.382
lwrist 101.252
lhand -1.10736 58.095
lfingers 7.12502
lthumb 24.5293 446.544
rfemur -24.2005 -19.6024 17.1991
rtibia 65.5507
rfoot -13.2569 5.96173
rtoes -5.92824
lfemur -30.3465 3.49512 -28.3237
ltibia 37.9013
lfoot -13.5046 -1.79435
ltoes 0.203644
